<svg width="326" height="162" viewBox="0 0 326 162" fill="none" xmlns="http://www.w3.org/2000/svg">
<path fill-rule="evenodd" clip-rule="evenodd" d="M96.8666 60.2136C97.0292 119.333 97.0526 120.503 98.1465 124.605C98.7596 126.903 99.4185 128.941 99.611 129.135C99.9484 129.475 109.61 127.482 111.933 126.593L113.071 126.158L112.004 121.415C110.979 116.861 110.929 114.349 110.735 58.3361L110.533 0H103.617H96.7013L96.8666 60.2136ZM188.869 15.5338C184.974 16.2499 180.483 17.6671 176.84 19.329C173.204 20.9876 172.495 21.6721 175.228 20.883C178.622 19.9035 181.117 20.302 185.772 22.5674C191.107 25.1636 195.556 26.4275 197.755 25.9731C198.635 25.7907 201.345 24.5612 203.777 23.24C209.067 20.3664 212.684 19.7538 216.247 21.1265C218.105 21.8421 218.352 21.8593 217.535 21.2156C216.139 20.1159 209.446 17.3587 205.674 16.3293C202.016 15.331 192.437 14.8777 188.869 15.5338ZM164.766 31.7091C161.221 32.5464 156.274 35.2377 153.844 37.6505C149.706 41.7585 143.438 52.1313 141.587 57.9338C140.586 61.0724 139.4 70.7881 139.394 75.904C139.383 85.6127 141.176 91.9361 146.352 100.439C156.892 117.755 167.963 125.835 185.145 128.754C197.498 130.852 207.368 129.612 219.012 124.5C222.124 123.133 229.296 118.464 232.801 115.52C238.77 110.511 246.206 98.4713 249.009 89.2813C250.359 84.8553 250.772 83.4509 250.799 74.785C250.826 66.1513 250.41 65.2603 249.038 60.0838C247.081 52.7015 243.75 45.7634 239.723 40.6813C234.515 34.108 230.47 31.9998 221.682 31.2794C218.598 31.0268 217.583 31.1491 216.263 31.9338C210.756 35.2071 214.453 39.484 227.178 44.5607C237.257 48.5823 243.206 52.937 244.346 57.1291C245.198 60.2635 245.073 67.5315 244.12 70.3102C243.282 72.752 241.236 75.8659 241.215 74.7319C241.208 74.3821 240.95 73.4284 240.642 72.6114L240.081 71.1266L238.183 74.5731C230.652 88.2449 221.065 96.5107 209.158 99.5967C207.108 100.128 205.485 100.842 205.485 101.212C205.485 101.577 206.325 102.549 207.351 103.373C208.377 104.197 209.217 105.082 209.217 105.34C209.217 105.874 204.141 105.499 202.603 104.851C201.653 104.451 201.606 104.624 201.895 107.434L202.203 110.445L200.779 109.905C198.125 108.898 194.941 106.777 193.503 105.056L192.07 103.343L188.606 105.062C186.701 106.007 184.022 106.932 182.652 107.117L180.163 107.455L182.428 104.968C185.664 101.416 185.484 100.776 180.829 99.2835C167.86 95.1256 157.234 86.4538 152.179 75.904C150.963 73.3662 150.014 71.9414 149.858 72.4172C149.713 72.8598 149.382 73.9251 149.123 74.785L148.652 76.3481L147.512 74.4052C144.991 70.1042 144.591 65.0033 146.332 59.3312C147.935 54.1112 150.007 52.2005 158.349 48.2529C172.047 41.7713 174.501 40.2688 175.93 37.4864C177.215 34.9877 176.754 33.1521 174.565 32.0524C172.539 31.0337 168.259 30.8841 164.766 31.7091ZM268.917 33.5469C267.517 37.2514 265.245 44.7544 265.458 44.9684C265.591 45.1031 267.685 45.8224 270.112 46.567C274.325 47.8608 275.252 47.9311 290.915 48.1516C299.931 48.2781 307.308 48.4514 307.308 48.5367C307.308 48.622 298.816 62.5717 288.437 79.5366C278.058 96.5011 268.582 112.023 267.379 114.029C265.235 117.606 265.193 117.775 265.193 122.673V127.669H295.597H326L325.85 121.366L325.7 115.063L304.509 114.923C292.854 114.846 283.318 114.649 283.318 114.487C283.318 114.325 289.114 104.732 296.198 93.1704C303.281 81.6088 311.884 67.5626 315.316 61.957C318.747 56.3513 322.307 50.5708 323.227 49.1118C324.823 46.5804 324.9 46.2054 324.9 40.9313V35.404H303.912C282.359 35.404 277.347 35.0338 271.687 33.0249C269.443 32.2278 269.413 32.2337 268.917 33.5469ZM22.8975 34.1112C13.7063 35.7419 5.63241 41.597 2.83362 48.6617C1.77435 51.3358 1.60216 52.7299 1.59149 58.7384C1.5787 65.5531 1.61975 65.8004 3.38272 69.5903C6.09835 75.4292 11.8447 80.5285 18.3837 82.9027C19.6935 83.3785 24.7234 84.9695 29.5613 86.4388C41.1264 89.9502 44.3522 91.92 46.3257 96.6732C47.2997 99.0196 47.4138 104.745 46.5379 107.339C42.9139 118.07 29.1508 120.847 11.1692 114.477C8.23715 113.439 5.53486 112.542 5.16382 112.485C4.48198 112.38 -0.383118 122.26 0.0241726 122.923C0.478909 123.663 8.62685 126.759 13.5287 128.055C20.4649 129.888 31.6819 130.341 38.1432 129.05C54.2706 125.826 63.4138 113.307 61.1343 97.568C60.0121 89.8204 56.911 84.7673 50.7244 80.6031C46.7672 77.9402 44.5868 77.1125 28.373 72.1217C20.3572 69.6541 16.7337 66.5037 15.5881 61.0064C14.1962 54.3295 17.584 48.2771 23.7446 46.4361C29.4973 44.7174 40.307 45.7623 48.3899 48.8189C50.0958 49.4642 51.5901 49.8939 51.7095 49.7732C52.232 49.2475 56.2164 40.1406 56.2164 39.4717C56.2164 38.1059 45.8769 34.9169 37.9192 33.8285C32.5242 33.0909 28.1891 33.1725 22.8975 34.1112ZM167.84 37.5743C168.37 38.0705 165.153 40.2264 163.877 40.2296C162.877 40.2323 161.771 39.1986 161.771 38.2626C161.771 36.8443 166.487 36.3095 167.84 37.5743ZM227.342 37.8914C228.053 38.5759 228.053 38.718 227.342 39.1702C225.251 40.5005 222.025 39.1488 222.751 37.2455C223.138 36.2295 226.041 36.6377 227.342 37.8914ZM190.046 38.3865C187.543 38.9326 186.162 39.58 184.992 40.7575L183.382 42.3775H185.894C188.102 42.3775 188.445 42.533 188.728 43.6687C188.905 44.3789 188.78 45.4673 188.45 46.0874C187.925 47.0733 188.037 47.2976 189.337 47.8667C191.237 48.6987 199.442 48.7137 201.317 47.8887C202.638 47.3078 202.702 47.1377 202.15 45.6663C201.364 43.5726 202.309 42.3775 204.751 42.3775C205.741 42.3775 206.551 42.1779 206.551 41.9344C206.551 40.8079 203.662 38.9648 200.853 38.2996C197.034 37.3957 194.494 37.4161 190.046 38.3865ZM174.565 52.6817C174.565 53.3323 176.435 54.0082 180.962 54.9942C185.633 56.0112 203.841 56.1872 208.684 55.2618C212.813 54.4733 216.68 53.1199 216.68 52.4639C216.68 52.1442 216.171 52.053 215.481 52.2488C214.821 52.4365 211.882 52.9708 208.95 53.4369C202.674 54.4347 184.866 54.1531 178.43 52.9547C176.304 52.5588 174.565 52.436 174.565 52.6817ZM184.961 59.1568C186.442 60.0655 203.205 60.0655 204.686 59.1568C205.546 58.629 203.648 58.5029 194.823 58.5029C185.998 58.5029 184.1 58.629 184.961 59.1568ZM11.9689 149.662C11.9689 155.98 12.0958 157.172 12.7685 157.172C13.4413 157.172 13.5682 155.98 13.5682 149.662C13.5682 143.344 13.4413 142.152 12.7685 142.152C12.0958 142.152 11.9689 143.344 11.9689 149.662ZM48.2199 142.957C48.2199 143.4 48.4598 143.762 48.753 143.762C49.0462 143.762 49.2861 143.4 49.2861 142.957C49.2861 142.514 49.0462 142.152 48.753 142.152C48.4598 142.152 48.2199 142.514 48.2199 142.957ZM156.44 145.121C156.44 147.891 156.37 148.054 155.409 147.535C153.83 146.686 151.893 146.871 150.501 148.006C149.456 148.858 149.243 149.528 149.243 151.973C149.243 154.112 149.52 155.222 150.258 156.043C151.358 157.266 153.717 157.528 155.409 156.617C156.119 156.234 156.44 156.234 156.44 156.617C156.44 156.922 156.68 157.172 156.973 157.172C157.303 157.172 157.506 154.311 157.506 149.662C157.506 145.013 157.303 142.152 156.973 142.152C156.68 142.152 156.44 143.489 156.44 145.121ZM222.544 145.121C222.544 147.891 222.475 148.054 221.513 147.535C219.835 146.632 218.011 146.896 216.773 148.221C215.183 149.925 215.142 154.315 216.701 155.998C217.905 157.299 220.842 157.598 221.905 156.528C222.402 156.028 222.544 156.028 222.544 156.528C222.544 156.883 222.904 157.172 223.344 157.172C224.017 157.172 224.144 155.98 224.144 149.662C224.144 143.344 224.017 142.152 223.344 142.152C222.729 142.152 222.544 142.84 222.544 145.121ZM243.335 149.707C243.335 155.511 243.49 157.21 244.002 157.041C244.401 156.908 244.724 155.655 244.806 153.911C245.005 149.742 245.329 148.706 246.561 148.313C248.533 147.683 249.2 148.923 249.2 153.214C249.2 156.375 249.361 157.172 249.999 157.172C250.637 157.172 250.799 156.381 250.799 153.269C250.799 148.143 249.928 146.74 246.995 147.136L244.935 147.415V144.783C244.935 142.802 244.737 142.152 244.135 142.152C243.462 142.152 243.335 143.349 243.335 149.707ZM280.653 149.662C280.653 155.98 280.78 157.172 281.452 157.172C282.125 157.172 282.252 155.98 282.252 149.662C282.252 143.344 282.125 142.152 281.452 142.152C280.78 142.152 280.653 143.344 280.653 149.662ZM265.193 145.326C265.193 146.439 264.931 146.98 264.393 146.98C263.953 146.98 263.593 147.342 263.593 147.785C263.593 148.227 263.953 148.589 264.393 148.589C265.037 148.589 265.193 149.424 265.193 152.881V157.172H266.792C267.672 157.172 268.391 156.931 268.391 156.636C268.391 156.341 268.031 156.099 267.592 156.099C266.957 156.099 266.792 155.325 266.792 152.344C266.792 149.364 266.957 148.589 267.592 148.589C268.031 148.589 268.391 148.227 268.391 147.785C268.391 147.342 268.047 146.98 267.627 146.98C267.196 146.98 266.789 146.355 266.694 145.546C266.449 143.458 265.193 143.274 265.193 145.326ZM3.56131 147.339C2.59426 147.731 1.30682 150.436 1.30682 152.076C1.30682 156.654 6.17778 159.026 8.76972 155.71C10.1286 153.972 9.31455 153.406 7.7371 154.993C6.3553 156.384 5.33014 156.393 3.97233 155.026C1.96467 153.006 2.55641 152.344 6.37129 152.344C9.72878 152.344 9.83646 152.302 9.83646 150.979C9.83646 148.263 6.31905 146.223 3.56131 147.339ZM22.0978 152.121C22.0978 155.994 22.262 157.207 22.7642 157.04C23.1939 156.897 23.486 155.455 23.5873 152.978C23.7179 149.768 23.9205 149.043 24.8204 148.558C26.7305 147.53 27.4289 148.777 27.4289 153.214C27.4289 156.375 27.5898 157.172 28.2285 157.172C28.8677 157.172 29.0282 156.37 29.0282 153.168C29.0282 149.763 29.1817 149.081 30.056 148.61C32.0972 147.511 32.706 148.406 32.8718 152.753C32.9726 155.411 33.2573 156.895 33.6928 157.04C34.5356 157.32 34.6337 149.572 33.8074 148.018C33.1501 146.782 31.3018 146.672 29.7372 147.775C28.7408 148.477 28.5329 148.477 27.954 147.775C27.1863 146.844 25.2277 146.727 24.3971 147.563C23.9797 147.983 23.7174 147.983 23.4594 147.563C22.5126 146.022 22.0978 147.409 22.0978 152.121ZM38.3335 148.297C36.4847 150.157 36.4847 153.995 38.3335 155.855C40.1897 157.724 42.9651 157.658 44.4876 155.71C45.8795 153.93 44.9125 153.293 43.3612 154.969C42.7854 155.59 41.8807 156.099 41.3514 156.099C40.1801 156.099 38.624 154.469 38.624 153.241C38.624 152.495 39.2067 152.344 42.0892 152.344C45.9163 152.344 46.2223 151.982 44.7744 149.164C43.4507 146.589 40.4344 146.182 38.3335 148.297ZM48.2199 153.352C48.2199 159.361 48.1516 159.77 47.0204 160.535C45.5533 161.527 46.0795 162.253 47.9283 161.786L49.2861 161.443V154.212C49.2861 149.748 49.0819 146.98 48.753 146.98C48.4272 146.98 48.2199 149.462 48.2199 153.352ZM53.2603 148.297C52.2661 149.297 51.9516 150.183 51.9516 151.98C51.9516 155.306 53.4842 157.172 56.2164 157.172C58.9144 157.172 60.4812 155.3 60.4812 152.076C60.4812 147.44 56.291 145.247 53.2603 148.297ZM63.1467 152.076C63.1467 156.248 63.2917 157.172 63.9464 157.172C64.5787 157.172 64.746 156.409 64.746 153.525C64.746 149.755 65.2743 148.589 66.9851 148.589C67.5128 148.589 67.9447 148.227 67.9447 147.785C67.9447 146.843 67.218 146.76 65.7771 147.535C65.0664 147.918 64.746 147.918 64.746 147.535C64.746 147.23 64.3862 146.98 63.9464 146.98C63.2917 146.98 63.1467 147.904 63.1467 152.076ZM75.9865 148.272C74.2635 150.118 74.2443 154.014 75.9497 155.84C78.1898 158.24 81.9487 157.453 83.0405 154.356C83.5459 152.921 82.2665 153.222 80.9849 154.84C80.0903 155.968 79.5706 156.19 78.4681 155.912C76.2467 155.35 75.5291 151.066 77.3225 149.072C78.5491 147.708 79.4799 147.789 80.9508 149.385C81.6257 150.118 82.3342 150.561 82.525 150.369C83.1082 149.782 82.919 149.174 81.8053 148.053C80.2977 146.536 77.5096 146.641 75.9865 148.272ZM86.3127 148.297C85.3185 149.297 85.004 150.183 85.004 151.98C85.004 155.306 86.5366 157.172 89.2688 157.172C91.9668 157.172 93.5336 155.3 93.5336 152.076C93.5336 147.44 89.3434 145.247 86.3127 148.297ZM96.4251 147.698C95.8707 149.151 96.4507 156.813 97.132 157.04C97.6225 157.203 97.7984 156.27 97.7984 153.5C97.7984 150.796 98.034 149.502 98.6359 148.896C100.756 146.763 102.063 148.578 102.063 153.65C102.063 155.641 102.295 157.172 102.596 157.172C102.9 157.172 103.129 155.591 103.129 153.5C103.129 150.475 103.322 149.653 104.227 148.829C105.067 148.064 105.536 147.964 106.226 148.4C106.919 148.838 107.164 149.919 107.283 153.071C107.403 156.235 107.617 157.172 108.216 157.172C109.351 157.172 109.308 149.817 108.164 148.173C107.17 146.745 105.459 146.635 104.061 147.908C103.095 148.787 103.015 148.787 102.526 147.908C101.945 146.864 100.371 146.705 98.8294 147.535C98.1188 147.918 97.7984 147.918 97.7984 147.535C97.7984 146.73 96.7471 146.854 96.4251 147.698ZM111.659 154.49C111.659 160.808 111.786 162 112.459 162C113.06 162 113.258 161.351 113.258 159.384V156.768L115.572 157.03C117.615 157.262 118.02 157.121 119.037 155.819C119.805 154.836 120.189 153.589 120.189 152.076C120.189 148.102 117.342 145.891 114.322 147.518C113.654 147.878 113.214 147.878 112.993 147.518C111.994 145.892 111.659 147.645 111.659 154.49ZM123.737 147.961C122.638 149.183 122.6 150.199 123.654 150.199C124.094 150.199 124.454 149.853 124.454 149.43C124.454 148.507 126.094 147.896 127.31 148.366C128.559 148.849 128.466 151.272 127.198 151.272C123.697 151.272 121.54 153.629 122.828 156.049C123.504 157.32 126.46 157.621 127.546 156.528C128.043 156.028 128.328 156.028 128.825 156.528C129.715 157.424 130.851 157.333 130.851 156.368C130.851 155.925 130.611 155.563 130.318 155.563C130.018 155.563 129.785 154.071 129.785 152.159C129.785 149.543 129.559 148.55 128.81 147.868C127.516 146.689 124.836 146.739 123.737 147.961ZM132.983 152.076C132.983 156.248 133.128 157.172 133.783 157.172C134.415 157.172 134.583 156.409 134.583 153.525C134.583 149.755 135.111 148.589 136.822 148.589C137.349 148.589 137.781 148.227 137.781 147.785C137.781 146.843 137.055 146.76 135.614 147.535C134.903 147.918 134.583 147.918 134.583 147.535C134.583 147.23 134.223 146.98 133.783 146.98C133.128 146.98 132.983 147.904 132.983 152.076ZM140.357 147.651C139.902 148.02 139.384 148.744 139.205 149.26C138.754 150.565 140.027 150.462 140.856 149.126C142.012 147.263 144.711 148.089 144.711 150.306C144.711 150.972 144.308 151.272 143.413 151.272C139.811 151.272 137.615 153.605 139.088 155.867C140.007 157.278 141.898 157.577 143.715 156.599C144.494 156.178 144.99 156.201 145.568 156.683C146.192 157.204 146.49 157.198 147 156.653C147.503 156.115 147.499 155.912 146.977 155.72C146.546 155.561 146.311 154.35 146.311 152.3C146.311 149.841 146.07 148.884 145.245 148.053C144.043 146.844 141.6 146.643 140.357 147.651ZM161.761 147.953C160.907 148.649 160.496 149.679 160.317 151.574C159.976 155.176 161.445 157.172 164.436 157.172C167.134 157.172 168.701 155.3 168.701 152.076C168.701 147.698 164.869 145.421 161.761 147.953ZM172.463 148.023C170.297 150.202 170.621 155.373 173.004 156.656C174.243 157.323 176.501 157.316 177.756 156.64C178.3 156.347 179.033 155.23 179.384 154.157C180.164 151.779 179.339 148.365 177.78 147.525C176.157 146.651 173.587 146.892 172.463 148.023ZM183.134 148.394C180.41 151.877 182.226 157.172 186.144 157.172C188.847 157.172 190.558 155.197 190.558 152.076C190.558 150.177 190.259 149.313 189.25 148.297C187.415 146.451 184.617 146.495 183.134 148.394ZM193.999 148.297C193.005 149.297 192.691 150.183 192.691 151.98C192.691 155.306 194.223 157.172 196.956 157.172C199.654 157.172 201.22 155.3 201.22 152.076C201.22 147.44 197.03 145.247 193.999 148.297ZM203.886 152.076C203.886 156.248 204.031 157.172 204.686 157.172C205.318 157.172 205.485 156.409 205.485 153.525C205.485 149.755 206.013 148.589 207.724 148.589C208.252 148.589 208.684 148.227 208.684 147.785C208.684 146.733 207.385 146.755 206.323 147.823C205.561 148.589 205.485 148.589 205.485 147.823C205.485 147.359 205.125 146.98 204.686 146.98C204.031 146.98 203.886 147.904 203.886 152.076ZM228.118 148.297C226.402 150.023 226.302 153.696 227.914 155.759C229.495 157.78 232.673 157.756 234.272 155.71C235.664 153.93 234.697 153.293 233.146 154.969C232.57 155.59 231.665 156.099 231.136 156.099C229.965 156.099 228.409 154.469 228.409 153.241C228.409 152.495 228.991 152.344 231.874 152.344C235.701 152.344 236.007 151.982 234.559 149.164C233.235 146.589 230.219 146.182 228.118 148.297ZM254.57 148.394C253.847 149.317 253.464 150.593 253.464 152.076C253.464 155.3 255.031 157.172 257.729 157.172C260.427 157.172 261.994 155.3 261.994 152.076C261.994 148.852 260.427 146.98 257.729 146.98C256.144 146.98 255.421 147.303 254.57 148.394ZM272.245 147.339C271.278 147.731 269.991 150.436 269.991 152.076C269.991 156.654 274.862 159.026 277.454 155.71C278.812 153.972 277.998 153.406 276.421 154.993C275.039 156.384 274.014 156.393 272.656 155.026C270.648 153.006 271.24 152.344 275.055 152.344C278.343 152.344 278.52 152.279 278.52 151.076C278.52 148.995 276.573 146.974 274.616 147.023C273.685 147.046 272.618 147.188 272.245 147.339ZM286.162 148.361C284.952 149.579 284.82 150.066 285.051 152.484C285.359 155.707 286.74 157.172 289.469 157.172C290.759 157.172 291.547 156.777 292.38 155.71C293.772 153.93 292.805 153.293 291.254 154.969C290.678 155.59 289.774 156.099 289.244 156.099C288.073 156.099 286.517 154.469 286.517 153.241C286.517 152.495 287.099 152.344 289.982 152.344C293.809 152.344 294.115 151.982 292.667 149.164C291.327 146.556 288.324 146.186 286.162 148.361ZM296.435 147.677C295.805 148.141 295.548 148.904 295.667 149.957C295.822 151.328 296.202 151.658 298.512 152.428C301.299 153.356 302.036 154.4 300.696 155.519C299.534 156.49 297.524 156.012 296.918 154.622C296.382 153.392 295.542 153.264 295.18 154.356C294.776 155.575 297.112 157.172 299.299 157.172C300.961 157.172 301.604 156.888 302.275 155.857C303.584 153.849 302.844 152.542 299.826 151.533C296.84 150.536 296.274 149.955 297.198 148.834C298.084 147.761 299.115 147.856 300.377 149.126C301.631 150.388 302.51 150.51 302.51 149.425C302.51 147.465 298.35 146.268 296.435 147.677ZM7.26211 148.941C9.01015 150.533 8.47438 151.272 5.57164 151.272C2.68116 151.272 2.32078 150.788 3.97233 149.126C5.26937 147.821 5.98799 147.78 7.26211 148.941ZM42.8888 149.126C44.5404 150.788 44.18 151.272 41.2895 151.272C38.4326 151.272 37.9917 150.718 39.5063 149.034C40.6439 147.769 41.5651 147.794 42.8888 149.126ZM57.9069 148.941C59.8937 150.75 58.6996 156.099 56.3092 156.099C53.5813 156.099 52.3711 150.554 54.736 148.888C56.2324 147.833 56.6989 147.841 57.9069 148.941ZM90.9592 148.941C92.9461 150.75 91.752 156.099 89.3615 156.099C86.6336 156.099 85.4235 150.554 87.7883 148.888C89.2848 147.833 89.7512 147.841 90.9592 148.941ZM117.614 148.941C118.859 150.074 118.946 154.055 117.752 155.257C115.689 157.332 113.258 155.608 113.258 152.068C113.258 150.253 113.526 149.535 114.443 148.888C115.94 147.833 116.406 147.841 117.614 148.941ZM154.853 148.596C157.218 149.869 156.568 155.241 153.97 155.897C151.048 156.635 149.283 151.5 151.642 149.126C152.847 147.913 153.412 147.82 154.853 148.596ZM166.264 148.896C168.11 150.753 166.822 156.099 164.529 156.099C161.906 156.099 160.729 151.247 162.837 149.126C164.121 147.834 165.141 147.766 166.264 148.896ZM176.71 148.596C177.966 149.272 178.547 152.148 177.818 154.078C177.118 155.932 174.846 156.612 173.587 155.345C172.287 154.037 172.382 149.809 173.734 148.814C174.965 147.909 175.378 147.879 176.71 148.596ZM187.774 148.888C190.403 150.741 188.587 156.66 185.619 155.911C183.4 155.35 182.684 151.064 184.476 149.072C185.589 147.835 186.229 147.799 187.774 148.888ZM198.784 148.896C200.629 150.753 199.342 156.099 197.048 156.099C194.425 156.099 193.248 151.247 195.356 149.126C196.64 147.834 197.66 147.766 198.784 148.896ZM221.359 148.888C222.95 150.009 223.035 153.877 221.5 155.275C219.945 156.692 217.97 155.993 217.241 153.768C216.614 151.858 216.878 150.514 218.177 148.992C219.164 147.835 219.835 147.813 221.359 148.888ZM232.673 149.126C234.325 150.788 233.965 151.272 231.074 151.272C228.217 151.272 227.776 150.718 229.291 149.034C230.429 147.769 231.35 147.794 232.673 149.126ZM259.42 148.941C260.675 150.084 260.73 153.764 259.512 155.118C257.546 157.304 255.064 155.684 255.064 152.214C255.064 148.674 257.29 147.001 259.42 148.941ZM275.946 148.941C277.694 150.533 277.158 151.272 274.255 151.272C271.365 151.272 271.005 150.788 272.656 149.126C273.953 147.821 274.672 147.78 275.946 148.941ZM290.663 148.888C292.736 150.349 292.163 151.272 289.182 151.272C287.215 151.272 286.517 151.069 286.517 150.497C286.517 149.805 288.428 148.053 289.182 148.053C289.345 148.053 290.011 148.429 290.663 148.888ZM128.185 153.667C128.185 155.202 126.518 156.32 124.966 155.825C123.54 155.369 123.638 153.497 125.12 152.897C127.294 152.018 128.185 152.241 128.185 153.667ZM144.711 153.334C144.711 154.646 142.906 156.241 141.686 156.007C140.176 155.717 140.121 153.512 141.609 152.911C143.615 152.102 144.711 152.251 144.711 153.334Z" fill="#262626"/>
</svg>
